<svg xmlns="http://www.w3.org/2000/svg" width="32" height="32" fill="none" viewBox="0 0 32 32"><path fill="#fff" d="M8.07368 8.80109C7.83453 8.66302 7.52874 8.74496 7.39067 8.9841C7.2526 9.22325 7.33453 9.52905 7.57368 9.66712L8.07368 8.80109ZM11.1223 11.1694L11.2518 11.6523C11.5185 11.5808 11.6767 11.3066 11.6052 11.04L11.1223 11.1694ZM7.44446 11.6382C7.17775 11.7098 7.01954 11.984 7.09108 12.2507C7.16262 12.5174 7.43684 12.6756 7.70355 12.6041L7.44446 11.6382ZM10.6547 7.49241C10.5832 7.22568 10.309 7.06739 10.0423 7.13886C9.77557 7.21033 9.61728 7.4845 9.68875 7.75123L10.6547 7.49241ZM7.54624 17.7733C7.30709 17.9114 7.22515 18.2172 7.36322 18.4563C7.5013 18.6955 7.80709 18.7774 8.04624 18.6393L7.54624 17.7733ZM11.1215 16.3173L11.6045 16.4465C11.6759 16.1798 11.5176 15.9058 11.2509 15.8343L11.1215 16.3173ZM9.68868 19.7368C9.61728 20.0035 9.77565 20.2777 10.0424 20.3491C10.3092 20.4205 10.5833 20.2621 10.6547 19.9953L9.68868 19.7368ZM7.70338 14.8837C7.43665 14.8123 7.16248 14.9706 7.09101 15.2373C7.01954 15.504 7.17783 15.7782 7.44457 15.8497L7.70338 14.8837ZM15.0528 22.7163C15.0528 22.9925 15.2767 23.2163 15.5528 23.2163C15.829 23.2163 16.0528 22.9925 16.0528 22.7163H15.0528ZM15.5795 18.892L15.933 18.5384C15.7377 18.3432 15.4212 18.3433 15.226 18.5385L15.5795 18.892ZM17.8245 21.8427C18.0198 22.0379 18.3364 22.0378 18.5316 21.8425C18.7268 21.6472 18.7267 21.3306 18.5314 21.1354L17.8245 21.8427ZM12.629 21.1355C12.4337 21.3307 12.4337 21.6473 12.629 21.8426C12.8242 22.0378 13.1408 22.0378 13.3361 21.8426L12.629 21.1355ZM16.1077 4.77161C16.1077 4.49546 15.8838 4.27161 15.6077 4.27161C15.3316 4.27161 15.1077 4.49546 15.1077 4.77161H16.1077ZM15.581 8.5959L15.2276 8.94955C15.4228 9.14472 15.7393 9.14468 15.9346 8.94946L15.581 8.5959ZM13.336 5.64527C13.1407 5.45006 12.8241 5.45015 12.6289 5.64546C12.4337 5.84078 12.4338 6.15736 12.6291 6.35257L13.336 5.64527ZM18.5315 6.35247C18.7268 6.15721 18.7268 5.84063 18.5315 5.64537C18.3363 5.4501 18.0197 5.4501 17.8244 5.64537L18.5315 6.35247ZM23.2205 21.2995L23.5409 20.9157L23.2205 21.2995ZM18.9248 21.2994L18.6043 20.9156H18.6043L18.9248 21.2994ZM21.4699 14.9692C21.1938 14.9692 20.9699 15.1931 20.9699 15.4692C20.9699 15.7454 21.1938 15.9692 21.4699 15.9692V14.9692ZM21.4699 17.293C21.1938 17.293 20.9699 17.5168 20.9699 17.793C20.9699 18.0691 21.1938 18.293 21.4699 18.293V17.293ZM21.4699 19.777C21.1938 19.777 20.9699 20.0009 20.9699 20.277C20.9699 20.5531 21.1938 20.777 21.4699 20.777V19.777ZM11.3625 10.6999L8.07368 8.80109L7.57368 9.66712L10.8625 11.5659L11.3625 10.6999ZM10.9927 10.6864L7.44446 11.6382L7.70355 12.6041L11.2518 11.6523L10.9927 10.6864ZM11.6052 11.04L11.5955 11.0035L10.6295 11.2623L10.6393 11.2988L11.6052 11.04ZM11.5955 11.0035L10.6547 7.49241L9.68875 7.75123L10.6295 11.2623L11.5955 11.0035ZM10.8351 15.8745L7.54624 17.7733L8.04624 18.6393L11.3351 16.7405L10.8351 15.8745ZM10.6385 16.188L9.68868 19.7368L10.6547 19.9953L11.6045 16.4465L10.6385 16.188ZM11.2509 15.8343L11.2145 15.8245L10.9557 16.7905L10.9921 16.8002L11.2509 15.8343ZM11.2145 15.8245L7.70338 14.8837L7.44457 15.8497L10.9557 16.7905L11.2145 15.8245ZM15.0528 18.9187L15.0528 22.7163H16.0528L16.0528 18.9187H15.0528ZM15.2261 19.2457L17.8245 21.8427L18.5314 21.1354L15.933 18.5384L15.2261 19.2457ZM15.226 18.5385L15.1993 18.5652L15.9064 19.2723L15.9331 19.2456L15.226 18.5385ZM15.1993 18.5652L12.629 21.1355L13.3361 21.8426L15.9064 19.2723L15.1993 18.5652ZM16.1077 8.56921V4.77161H15.1077V8.56921H16.1077ZM15.9345 8.24225L13.336 5.64527L12.6291 6.35257L15.2276 8.94955L15.9345 8.24225ZM15.9346 8.94946L15.9613 8.92277L15.2541 8.21566L15.2275 8.24235L15.9346 8.94946ZM15.9613 8.92277L18.5315 6.35247L17.8244 5.64537L15.2541 8.21566L15.9613 8.92277ZM15.3028 14.1929L15.3301 14.2087L15.8301 13.3427L15.8028 13.3269L15.3028 14.1929ZM15.3301 14.2087L15.3577 14.2246L15.8577 13.3586L15.8301 13.3427L15.3301 14.2087ZM15.0528 13.6965V13.728H16.0528V13.6965H15.0528ZM15.0528 13.728V13.7599H16.0528V13.728H15.0528ZM15.8028 13.2635L11.3625 10.6999L10.8625 11.5659L15.3028 14.1295L15.8028 13.2635ZM15.8577 13.2952L15.8301 13.2793L15.3301 14.1453L15.3577 14.1612L15.8577 13.2952ZM15.8301 13.2793L15.8028 13.2635L15.3028 14.1295L15.3301 14.1453L15.8301 13.2793ZM16.1077 13.7916V13.7597H15.1077V13.7916H16.1077ZM16.1077 13.7597V13.7282H15.1077V13.7597H16.1077ZM16.1077 13.7282V13.6964H15.1077V13.7282H16.1077ZM16.1077 13.6964L16.1077 8.56921H15.1077L15.1077 13.6964H16.1077ZM15.3577 13.2633L15.3301 13.2793L15.8301 14.1453L15.8577 14.1294L15.3577 13.2633ZM15.3301 13.2793L15.3028 13.295L15.8028 14.1611L15.8301 14.1453L15.3301 13.2793ZM15.3028 13.295L10.8351 15.8745L11.3351 16.7405L15.8028 14.1611L15.3028 13.295ZM15.0528 13.7599V13.7914H16.0528V13.7599H15.0528ZM15.0528 13.7914L15.0528 18.9187H16.0528L16.0528 13.7914H15.0528ZM15.8028 14.2244L15.8301 14.2087L15.3301 13.3426L15.3028 13.3584L15.8028 14.2244ZM15.8301 14.2087L15.8577 14.1928L15.3577 13.3267L15.3301 13.3427L15.8301 14.2087ZM23.9261 23.875C23.9261 25.4509 22.6485 26.7285 21.0726 26.7285V27.7285C23.2008 27.7285 24.9261 26.0032 24.9261 23.875H23.9261ZM21.0726 26.7285C19.4966 26.7285 18.2191 25.4509 18.2191 23.875H17.2191C17.2191 26.0032 18.9444 27.7285 21.0726 27.7285V26.7285ZM22.9001 21.6833C23.5279 22.2075 23.9261 22.9945 23.9261 23.875H24.9261C24.9261 22.6856 24.3867 21.6218 23.5409 20.9157L22.9001 21.6833ZM18.2191 23.875C18.2191 22.9945 18.6173 22.2075 19.2452 21.6832L18.6043 20.9156C17.7586 21.6217 17.2191 22.6855 17.2191 23.875H18.2191ZM19.2452 21.6832C19.3176 21.6228 19.3886 21.5783 19.4663 21.5341C19.5279 21.4991 19.6517 21.4343 19.745 21.3693C19.8571 21.2911 19.9805 21.1793 20.0673 21.0064C20.1513 20.8391 20.1795 20.6573 20.1795 20.4719H19.1795C19.1795 20.5591 19.1658 20.5734 19.1736 20.5578C19.1842 20.5365 19.1975 20.532 19.1732 20.5489C19.1301 20.5789 19.0914 20.597 18.9722 20.6647C18.8692 20.7232 18.7412 20.8013 18.6043 20.9156L19.2452 21.6832ZM21.0727 5.95487C21.3938 5.95487 21.6271 6.02717 21.7661 6.12695C21.8828 6.21081 21.9658 6.33448 21.9658 6.56389H22.9658C22.9658 6.0239 22.7369 5.59305 22.3494 5.31475C21.9842 5.05237 21.521 4.95487 21.0727 4.95487V5.95487ZM23.5409 20.9157C23.4041 20.8014 23.2761 20.7233 23.1731 20.6648C23.0539 20.597 23.0152 20.579 22.9721 20.549C22.9479 20.5321 22.9611 20.5367 22.9717 20.5579C22.9796 20.5735 22.9658 20.5592 22.9658 20.472H21.9658C21.9658 20.6574 21.9941 20.8392 22.078 21.0065C22.1648 21.1794 22.2882 21.2912 22.4003 21.3694C22.4936 21.4344 22.6174 21.4992 22.679 21.5342C22.7567 21.5784 22.8277 21.6229 22.9001 21.6833L23.5409 20.9157ZM21.0727 4.95487C20.6244 4.95487 20.1612 5.05237 19.7959 5.31475C19.4084 5.59305 19.1795 6.0239 19.1795 6.56389H20.1795C20.1795 6.33447 20.2625 6.21081 20.3793 6.12695C20.5182 6.02717 20.7516 5.95487 21.0727 5.95487V4.95487ZM20.1795 11.4089V6.56389H19.1795V11.4089H20.1795ZM15.8577 14.1928L19.9295 11.8419L19.4295 10.9759L15.3577 13.3267L15.8577 14.1928ZM20.1795 20.4719V16.1425H19.1795V20.4719H20.1795ZM20.1795 16.1425V11.4089H19.1795V16.1425H20.1795ZM15.3577 14.2246L19.4295 16.5755L19.9295 15.7095L15.8577 13.3586L15.3577 14.2246ZM22.4658 14.9692H21.4699V15.9692H22.4658V14.9692ZM21.9658 6.56389V15.4692H22.9658V6.56389H21.9658ZM21.9658 15.4692V17.793H22.9658V15.4692H21.9658ZM22.4658 17.293H21.4699V18.293H22.4658V17.293ZM21.9658 17.793V20.277H22.9658V17.793H21.9658ZM21.9658 20.277V20.472H22.9658V20.277H21.9658ZM22.4658 19.777H21.4699V20.777H22.4658V19.777Z"/></svg>