<svg xmlns="http://www.w3.org/2000/svg" width="32" height="32" fill="none" viewBox="0 0 32 32"><path stroke="#fff" stroke-linecap="round" d="M11.5176 20.2771L9.41792 17.3871M8.74731 24.0901L5.34998 22.9863M23.2532 24.0901L26.6505 22.9863M20.4829 20.2771L22.5826 17.3871M16.0002 18.8207V15.2485M30 26.7269H21.1864M2 26.7269H10.8141M21.1864 26.7269C21.1913 26.6342 21.1938 26.5407 21.1938 26.4467C21.1938 23.5784 18.8686 21.2531 16.0002 21.2531C13.1319 21.2531 10.8067 23.5784 10.8067 26.4467C10.8067 26.5407 10.8092 26.6342 10.8141 26.7269M21.1864 26.7269H10.8141M16.0002 11.2033V5.27301M16.0002 11.2033L18.5641 8.63949M16.0002 11.2033L13.4364 8.63949"/></svg>